<svg width="152" height="30" viewBox="0 0 152 30" fill="none" xmlns="http://www.w3.org/2000/svg">
<path d="M18 26.6219C22.2168 25.5366 25.5366 22.2168 26.6219 18H29.6999C28.5069 23.8774 23.8774 28.5069 18 29.6999V26.6219Z" fill="#1EC756"/>
<path d="M15 27C8.37258 27 3 21.6274 3 15C3 8.37258 8.37258 3 15 3C21.6274 3 27 8.37258 27 15H30C30 6.71573 23.2843 0 15 0C6.71573 0 0 6.71573 0 15C0 23.2843 6.71573 30 15 30V27Z" fill="#1EC756"/>
<path d="M14.9998 3C14.9998 9.62742 9.62717 15 2.99976 15C2.99976 16.0342 3.13059 17.0379 3.37662 17.9954C11.3615 17.7985 17.7982 11.3617 17.9951 3.37686C17.0377 3.13084 16.034 3 14.9998 3Z" fill="#1EC756"/>
<path d="M18.0002 26.6219C22.2171 25.5366 25.5369 22.2168 26.6222 18H29.7002C28.5071 23.8774 23.8776 28.5069 18.0002 29.6999V26.6219Z" fill="#EEAD2B"/>
<path d="M142.639 11.5362H151.68V13.8485L146.243 19.8061H151.68V22.285H142.639V19.9936L148.076 14.0151H142.639V11.5362Z" fill="#2B2A29"/>
<path d="M137.087 16.0774L141.92 22.285H138.379L135.171 18.1813L133.817 19.6603V22.285H131.005V6.87012H133.817V15.9108L137.671 11.5363H141.212L137.087 16.0774Z" fill="#2B2A29"/>
<path d="M125.323 20.6185C125.323 20.0908 125.503 19.6464 125.864 19.2853C126.225 18.9243 126.67 18.7437 127.198 18.7437C127.697 18.7437 128.128 18.9312 128.489 19.3062C128.864 19.6672 129.051 20.1047 129.051 20.6185C129.051 21.1046 128.864 21.5351 128.489 21.91C128.128 22.285 127.697 22.4725 127.198 22.4725C126.684 22.4725 126.239 22.2919 125.864 21.9309C125.503 21.5559 125.323 21.1185 125.323 20.6185Z" fill="#2B2A29"/>
<path d="M114.533 19.3895L117.345 18.8062C117.47 19.7783 118.109 20.2644 119.261 20.2644C119.831 20.2644 120.289 20.1602 120.636 19.9519C120.983 19.7297 121.157 19.4589 121.157 19.1395C121.157 18.834 120.997 18.591 120.678 18.4104C120.372 18.2299 119.983 18.1119 119.511 18.0563C119.053 18.0008 118.546 17.9105 117.991 17.7855C117.449 17.6605 116.942 17.5078 116.47 17.3272C116.012 17.1467 115.623 16.8342 115.303 16.3898C114.998 15.9454 114.845 15.3899 114.845 14.7234C114.845 13.7512 115.262 12.9458 116.095 12.307C116.942 11.6543 117.997 11.3279 119.261 11.3279C120.525 11.3279 121.567 11.6126 122.386 12.182C123.205 12.7375 123.691 13.4874 123.844 14.4317L121.053 15.015C120.914 14.0429 120.317 13.5568 119.261 13.5568C118.803 13.5568 118.421 13.654 118.116 13.8485C117.824 14.0429 117.678 14.2928 117.678 14.5984C117.678 14.9178 117.831 15.1677 118.136 15.3483C118.456 15.5288 118.845 15.6469 119.303 15.7024C119.775 15.758 120.282 15.8552 120.824 15.994C121.379 16.119 121.886 16.2718 122.344 16.4523C122.816 16.6329 123.205 16.9523 123.511 17.4105C123.83 17.8549 123.99 18.4174 123.99 19.0979C123.99 20.0561 123.532 20.8615 122.615 21.5142C121.698 22.167 120.581 22.4933 119.261 22.4933C117.942 22.4933 116.859 22.2156 116.012 21.6601C115.178 21.0907 114.685 20.3338 114.533 19.3895Z" fill="#2B2A29"/>
<path d="M108.82 19.4103L111.694 11.5362H114.548L108.632 26.4512H105.778L107.278 22.66L102.883 11.5362H105.924L108.82 19.4103Z" fill="#2B2A29"/>
<path d="M101.879 22.285H99.0669V6.87012H101.879V22.285Z" fill="#2B2A29"/>
<path d="M92.3416 19.4103L95.2163 11.5362H98.0701L92.1541 26.4512H89.3003L90.8001 22.66L86.4048 11.5362H89.4461L92.3416 19.4103Z" fill="#2B2A29"/>
<path d="M82.1264 11.5363V12.9319C82.5986 12.2792 83.1957 11.821 83.9179 11.5571C84.64 11.2793 85.383 11.2585 86.1468 11.4946V14.161C85.0219 13.7721 84.0706 13.793 83.2929 14.2235C82.5152 14.6401 82.1264 15.3206 82.1264 16.2649V22.285H79.3142V11.5363H82.1264Z" fill="#2B2A29"/>
<path d="M67.0653 17.7439V11.5362H69.8775V17.7439C69.8775 18.3966 70.0858 18.9243 70.5024 19.327C70.919 19.7297 71.4537 19.9311 72.1064 19.9311C72.7591 19.9311 73.2938 19.7297 73.7104 19.327C74.127 18.9243 74.3353 18.3966 74.3353 17.7439V11.5362H77.1475V17.7439C77.1475 19.1465 76.6753 20.2922 75.731 21.181C74.7867 22.0559 73.5785 22.4933 72.1064 22.4933C70.6343 22.4933 69.4262 22.0559 68.4818 21.181C67.5375 20.2922 67.0653 19.1465 67.0653 17.7439Z" fill="#2B2A29"/>
<path d="M65.546 14.9943C65.546 16.994 64.8794 18.7022 63.5462 20.1187L65.2335 22.1185L63.0879 23.9307L61.2548 21.7643C60.1993 22.2504 59.0745 22.4934 57.8802 22.4934C55.7137 22.4934 53.8945 21.7713 52.4224 20.327C50.9504 18.8827 50.2144 17.1051 50.2144 14.9943C50.2144 12.8834 50.9504 11.1058 52.4224 9.66154C53.8945 8.21725 55.7137 7.49511 57.8802 7.49511C60.0466 7.49511 61.8658 8.21725 63.3379 9.66154C64.8099 11.1058 65.546 12.8834 65.546 14.9943ZM57.8802 19.7646C58.4079 19.7646 58.9078 19.6812 59.38 19.5146L57.6302 17.4523L59.7758 15.64L61.6089 17.8273C62.1783 16.994 62.463 16.0497 62.463 14.9943C62.463 13.6472 62.0255 12.5154 61.1506 11.5988C60.2757 10.6823 59.1856 10.224 57.8802 10.224C56.5886 10.224 55.4985 10.6823 54.6097 11.5988C53.7348 12.5154 53.2973 13.6472 53.2973 14.9943C53.2973 16.3413 53.7348 17.4731 54.6097 18.3897C55.4985 19.3063 56.5886 19.7646 57.8802 19.7646Z" fill="#2B2A29"/>
<path d="M43.1447 11.3279C44.9501 11.3279 46.3943 11.9806 47.4775 13.286C48.5746 14.5775 48.9774 16.119 48.6857 17.9105H40.395C40.5894 18.5632 40.9436 19.0909 41.4574 19.4936C41.9851 19.8825 42.61 20.0769 43.3322 20.0769C44.5543 20.0769 45.4431 19.577 45.9985 18.5771L48.3108 19.6186C47.8247 20.4935 47.1373 21.1948 46.2485 21.7226C45.3736 22.2364 44.3737 22.4933 43.2489 22.4933C41.6102 22.4933 40.2423 21.9586 39.1452 20.8893C38.0481 19.82 37.4995 18.4938 37.4995 16.9106C37.4995 15.3275 38.0411 14.0012 39.1243 12.9319C40.2075 11.8626 41.5477 11.3279 43.1447 11.3279ZM43.1447 13.7443C42.5198 13.7443 41.9573 13.9318 41.4574 14.3067C40.9713 14.6678 40.6311 15.1539 40.4367 15.7649H45.8736C45.6791 15.1539 45.3389 14.6678 44.8528 14.3067C44.3668 13.9318 43.7974 13.7443 43.1447 13.7443Z" fill="#2B2A29"/>
</svg>
