<svg width="32" height="32" viewBox="0 0 32 32" fill="none" xmlns="http://www.w3.org/2000/svg">
<path d="M22.3643 9.16518L22.8357 9.63653C23.096 9.89689 23.0961 10.319 22.8357 10.5793L17.4146 16.0005L22.8357 21.4217C23.096 21.682 23.096 22.1041 22.8357 22.3645L22.3643 22.8358C22.104 23.0962 21.6818 23.0962 21.4215 22.8359L16.0004 17.4147L10.5792 22.8359C10.3189 23.0962 9.89673 23.0962 9.63637 22.8358L9.16501 22.3645C8.90466 22.1041 8.90464 21.682 9.16499 21.4216L14.5861 16.0005L9.16498 10.5793C8.90463 10.319 8.90465 9.89686 9.16501 9.63651L9.63636 9.16515C9.89672 8.90479 10.3188 8.90477 10.5792 9.16512L16.0004 14.5863L21.4215 9.16511C21.6819 8.90475 22.104 8.90482 22.3643 9.16518Z" fill="#151516"/>
</svg>
